<svg id="레이어_1" data-name="레이어 1" xmlns="http://www.w3.org/2000/svg" viewBox="0 0 1839 451"><defs><style>.cls-1{fill:#7360bd;}</style></defs><path class="cls-1" d="M.1,254.51q0-22.95,5.63-50.85a332.75,332.75,0,0,1,16.65-56A361.27,361.27,0,0,1,49.38,93,244.84,244.84,0,0,1,86.05,45.71,171.88,171.88,0,0,1,132,12.64,121.86,121.86,0,0,1,186.4.26q39.6,0,57.15,17.1t17.55,46.8a116.38,116.38,0,0,1-3.37,27.45,97.92,97.92,0,0,1-9.9,25.43,59.73,59.73,0,0,1-16.2,18.67,36.35,36.35,0,0,1-22.28,7.2,41.66,41.66,0,0,1-18.9-4.27q-8.55-4.27-8.55-6.53l.45-.45a18.49,18.49,0,0,1,2.7-2.25,88,88,0,0,0,16-15.3A156.29,156.29,0,0,0,216.1,92.74a147.79,147.79,0,0,0,11.25-23.63q4.5-12.15,4.5-22,0-24.3-26.1-24.3-13.5,0-29.25,11.48T145.23,64.61A353,353,0,0,0,115.08,108a416.09,416.09,0,0,0-25.65,50.4A373.41,373.41,0,0,0,71.65,210q-6.75,25.65-6.75,46.8a103.75,103.75,0,0,0,2.48,22.5,61.17,61.17,0,0,0,7.87,19.8A42.75,42.75,0,0,0,89.65,313q9,5.4,22,5.4,18.45,0,36.9-9.22A179.86,179.86,0,0,0,183.7,286a270.92,270.92,0,0,0,31.05-30.6q14.4-16.64,25.2-31a8.15,8.15,0,0,1,6.75-3.6c2.4,0,4.12.68,5.18,2a6.9,6.9,0,0,1,1.57,4.27,10.08,10.08,0,0,1-1.12,4.5,12.75,12.75,0,0,1-2,3.15q-1.8,2.26-8.1,11A241.37,241.37,0,0,1,225.55,266q-10.35,11.47-24.07,24.07a224.07,224.07,0,0,1-30.15,23.18A180.71,180.71,0,0,1,136,330.79a112.19,112.19,0,0,1-39.15,7q-44.55,0-70.65-21.82T.1,254.51Z"/><path class="cls-1" d="M462.7,240.56q-6.75,12.15-17.1,28.8A238.51,238.51,0,0,1,422,301.09a157.31,157.31,0,0,1-28.57,25.65q-15.3,10.58-31.5,10.57h-8.1a93.41,93.41,0,0,1-11.93-.9,31.88,31.88,0,0,1-13.05-4.72,30.59,30.59,0,0,1-10.12-10.8q-4.05-7-3.15-19.13.9-13,7.2-32.62t14.4-39.6q8.1-20,16.2-37.8T366,164.51a221.82,221.82,0,0,0-23.18,25.2q-11,13.95-21.15,29.25T302.5,249.79q-9,15.53-17.1,29.47l-21.15,35.1q-6.31,10.36-11,16.65c-3.15,4.21-5.92,6.3-8.32,6.3q-11.25,0-18.45-3.15a31.44,31.44,0,0,1-11.48-8.1,27.18,27.18,0,0,1-5.85-11.47,56.94,56.94,0,0,1-1.57-13.28,75.17,75.17,0,0,1,1.12-13.05A69.25,69.25,0,0,1,211.6,277l25.65-66.15q9.45-24.74,20.47-53.1T278.42,104q9.68-25.42,16.65-45t8.78-27.23q1.78-7.65,3.15-15.52a94.43,94.43,0,0,0,1.35-16q17.1-.9,27.22,2T351.1,9.94a21.72,21.72,0,0,1,7,10.12,34.42,34.42,0,0,1,1.58,9.45,21.62,21.62,0,0,1-.9,6.75v.45q-.92,5.4-7,22.73t-15.3,41.4q-9.23,24.07-20.25,52t-21.6,54.45q-10.58,26.57-19.8,49.28T260.2,292.76q5.4-9,14.17-23.85t19.8-31.72q11-16.87,23.18-34.2T341,171.71A190,190,0,0,1,362.57,149q10.13-8.78,17.33-8.78,18.9,0,26.55,8.78a29,29,0,0,1,7.65,19.57,35.92,35.92,0,0,1-3.15,15.3q-1.8,4.5-6.3,14.4T395,220.76q-5.18,12.6-10.8,27t-10.35,27.45q-4.72,13.07-7.65,23.85t-2.92,16.65a7.28,7.28,0,0,0,.9,4.05c.6.9,2.09,1.51,4.5,1.8q7.65.45,16.65-5.85a107.4,107.4,0,0,0,17.77-16,249.71,249.71,0,0,0,17.1-21.15q8.32-11.47,15.08-21.83t11.25-18.22c3-5.25,4.95-8.62,5.85-10.13a3.18,3.18,0,0,1,3.15-2.25q2.7,0,5.62,2.7a8.81,8.81,0,0,1,2.93,6.75A11.17,11.17,0,0,1,462.7,240.56Z"/><path class="cls-1" d="M703.44,232q2.7-6.3,6.75-6.3a5.34,5.34,0,0,1,4,2,6.88,6.88,0,0,1,1.8,4.72,7.69,7.69,0,0,1-.45,3.15q-7.2,13.95-17.32,31.95a239.1,239.1,0,0,1-22.73,33.53,136.79,136.79,0,0,1-28.12,26.32,57.28,57.28,0,0,1-51.53,7.88,49.93,49.93,0,0,1-16.2-8.78,50.63,50.63,0,0,1-11.92-13.95,43,43,0,0,1-5.63-18,139.24,139.24,0,0,1-31.95,30.15q-18.9,13.07-40.5,13.05-12.6,0-22.05-4.72a48.72,48.72,0,0,1-16-12.6A51.67,51.67,0,0,1,442,302a78,78,0,0,1-3.15-22.28q0-16.2,6.53-40a172,172,0,0,1,20.47-46.12,134.83,134.83,0,0,1,35.78-38q21.82-15.75,52.42-15.75c2.7,0,6.37.23,11,.68a46.74,46.74,0,0,1,14.17,3.82,38,38,0,0,1,13,9.68q5.85,6.52,6.75,18.22l.45,7.2,1.8-4.5q5.85-14.85,7-24.52c.74-6.45,1.12-10,1.12-10.58q13.5,0,22.05,2.25t13.5,5.85a20.31,20.31,0,0,1,7,8.33,25.4,25.4,0,0,1,2,10.12,43.73,43.73,0,0,1-3.6,17.1q-4.5,12.6-9,23.63t-9,21.37q-9,20.7-15.3,38a99,99,0,0,0-6.3,34V304q0,7.67,4,11.93t10.8,4.27q8.1,0,16.65-5.85a100.17,100.17,0,0,0,16.88-14.85,187,187,0,0,0,15.75-19.57q7.43-10.57,13.5-20.48t9.9-17.32Q702.08,234.72,703.44,232Zm-133.2-78.3q-10.35,0-20.7,7.88a92.28,92.28,0,0,0-19.35,20.7,207.33,207.33,0,0,0-16.65,28.57,289.66,289.66,0,0,0-13,31.28,273.93,273.93,0,0,0-8.55,29.47q-3.15,14-3.15,22.5a40.51,40.51,0,0,0,4,17.55q4.05,8.55,15.3,8.55,8.55,0,17.33-5.62a92.42,92.42,0,0,0,16.42-13.5,158.62,158.62,0,0,0,14-16.43q6.3-8.54,9.9-14.4l18.9-51.3a89.87,89.87,0,0,0,5.18-19.12,110.19,110.19,0,0,0,1.12-14.18,55.06,55.06,0,0,0-4.27-22Q582.38,153.73,570.24,153.71Z"/><path class="cls-1" d="M831.69,167.21q-5.4,6.75-17.1,22.95t-25.42,36.23q-13.74,20-27,41.17t-22.28,37.8q-9.9,17.55-17.1,25t-14.85,7.42q-10.8,0-17.55-2.92A22.73,22.73,0,0,1,680.27,327a28.56,28.56,0,0,1-4.5-11A65.47,65.47,0,0,1,674.64,304a77.94,77.94,0,0,1,3.15-22.27,189.42,189.42,0,0,1,7.65-20.93q3.16-9,7.88-20.92t9.22-24.75q4.5-12.82,8.55-25.43t6.75-22.5a139.69,139.69,0,0,0,2.48-14,119,119,0,0,0,.67-13.5q7.65,0,16.65.68a58.67,58.67,0,0,1,16.65,3.6,31.2,31.2,0,0,1,12.83,9q5.16,6.08,5.17,16.42a27.67,27.67,0,0,1-.22,3.83c-.16,1.05-.38,2.32-.68,3.82v.45q-.9,5.4-5.85,19.35t-11.47,30.83q-6.52,16.88-13.5,33.75t-11.93,28.57q5.85-9.88,14.85-24.75t19.8-31.5q10.8-16.63,22.73-33.52t23.17-30.15a198.54,198.54,0,0,1,21.15-21.83q9.9-8.53,16.65-8.55,18.9,0,26.33,6.75t7.42,17.55q0,10.8-6.52,30.83t-14.85,41.85q-8.34,21.82-16,42.07t-9.9,31.95q-1.8,9.45,3.6,9.45,7.65,0,18-8.1a154.29,154.29,0,0,0,21.38-20.92,350.57,350.57,0,0,0,21.82-28.35,330.6,330.6,0,0,0,18.9-30.38q1.35-2.7,4.95-2.7a6.81,6.81,0,0,1,5.4,2.7q2.25,2.7,0,7.65l-.9,1.35q-1.35,2.7-6.07,11t-11.93,18.9q-7.2,10.58-16.42,22.27a193.59,193.59,0,0,1-19.8,21.6,109.36,109.36,0,0,1-22,16.2q-11.48,6.32-22.73,6.3-17.1,0-26.1-5.17T789.17,320a33.18,33.18,0,0,1-2.93-15.75,74.2,74.2,0,0,1,2.25-15.08q2.7-11.7,8.1-29t11.7-35.1q6.3-17.78,12.6-33.75A215.61,215.61,0,0,1,831.69,167.21Z"/><path class="cls-1" d="M1083.69,216.71a208.25,208.25,0,0,1-34.2,44.1q-21.15,21.17-52.2,35.55c-.6.3-.67,1.28-.22,2.93a17.91,17.91,0,0,1,.67,4.72,55.82,55.82,0,0,1-7,27.45,69.68,69.68,0,0,1-18.23,21.38,89.09,89.09,0,0,1-25.2,13.72,83,83,0,0,1-27.9,4.95q-16.2,0-27.22-9.9t-11-22.95a26,26,0,0,1,6.3-17.1,38,38,0,0,1,11.7-7.65,114.63,114.63,0,0,1,16.65-5.62q9.45-2.48,20.7-6.08c4.2-1.19,8.7-2.4,13.5-3.6a106.6,106.6,0,0,0,14-4.5q.45-7.65-8.32-18.22t-19.35-23.63a249,249,0,0,1-19.58-27.9q-9-14.85-9-30.6A44.51,44.51,0,0,1,915.39,169a97.53,97.53,0,0,1,17.78-20.47,131.76,131.76,0,0,1,20.25-14.63q10.13-5.83,15.52-7.65c.9-.29,1.65-.52,2.25-.67a9.44,9.44,0,0,1,2.25-.23,25.15,25.15,0,0,1,11.25,2.93,53.34,53.34,0,0,1,11,7.42,46.92,46.92,0,0,1,8.55,9.68q3.38,5.18,3.37,9.22a11.23,11.23,0,0,1-1.35,5.85Q982.44,166.77,968,180t-14.4,29q0,9,6.08,18.23t11,16a223,223,0,0,1,12.6,18.68,195.48,195.48,0,0,1,11.25,20.92,171.73,171.73,0,0,0,41.18-28.12q19.57-17.78,36.67-43.43a12.2,12.2,0,0,1,6.3-4.05,5.56,5.56,0,0,1,4.28.9,5,5,0,0,1,2,4.5,5.51,5.51,0,0,1-.45,2C1084.29,215.44,1084,216.11,1083.69,216.71Zm-122,91.35q-8.55,2.26-16.65,4.5t-15.3,4.5a160.61,160.61,0,0,0-23.17,8.1q-8.77,4.05-8.78,11.7a13.89,13.89,0,0,0,3.83,9.9,13.26,13.26,0,0,0,10.12,4.05q5.4,0,12.15-3.6a73.78,73.78,0,0,0,13.5-9.45,125.18,125.18,0,0,0,13.28-13.5A88.79,88.79,0,0,0,961.74,308.06Z"/><path class="cls-1" d="M1209.23,241a319,319,0,0,1-22.72,34.65,287.27,287.27,0,0,1-26.78,31,139,139,0,0,1-28.8,22.5q-14.85,8.55-28.8,8.55a84.81,84.81,0,0,1-24.3-3.6,42.37,42.37,0,0,1-20.25-12.82q-8.1-9.22-9.9-24.53t6.75-38.25q.46-1.79,4-11.47t9-24.3q5.4-14.62,12.15-33.08t13.95-37.35h-24.75a5.94,5.94,0,0,1-3.82-1.8,15.6,15.6,0,0,1-3.38-4.27,9.3,9.3,0,0,1-1.35-4.28c0-1.19.76-1.8,2.25-1.8h35.55q6.3-16.64,12.15-32.85t11-29.92q5.16-13.72,9.22-24.75t6.3-17.33a59,59,0,0,0,4-13.95,48.9,48.9,0,0,0,.45-11.25,50.57,50.57,0,0,0-.9-9.9q21.15,0,31.73,4.05t14.62,10.58a21.39,21.39,0,0,1,3.15,14.17,62.92,62.92,0,0,1-3.6,14.85q-5,14.42-15.3,40.28t-22,56h27a5.63,5.63,0,0,1,4,1.8,9.49,9.49,0,0,1,2.48,4.28,11.22,11.22,0,0,1,.45,4.27,1.84,1.84,0,0,1-2,1.8h-36.45Q1135,176.23,1126,199.84t-16,43.65q-7,20-11.25,35.32t-3.83,22.95a22.84,22.84,0,0,0,4.5,11.7,12,12,0,0,0,9.9,4.5q12.15,0,26.55-11.92a223.69,223.69,0,0,0,27.45-27.23q13.05-15.29,22.73-29.25t12.37-18.45q2.25-4.05,5-4.05,3.6,0,5.63,4.73A11.61,11.61,0,0,1,1209.23,241Z"/><path class="cls-1" d="M1405,237.41a120.79,120.79,0,0,1-16.2,19.13,147.07,147.07,0,0,1-22.27,17.77,144.06,144.06,0,0,1-26.1,13.5,102,102,0,0,1-27.23,6.75,152.63,152.63,0,0,1-34.65,31.05q-18.9,12.15-40,12.15-16.65,0-28.35-4.27a46.82,46.82,0,0,1-18.9-12.15,49.42,49.42,0,0,1-10.57-18.23,72.2,72.2,0,0,1-3.38-22.5,122.87,122.87,0,0,1,4.5-32,197.89,197.89,0,0,1,12.15-32.85,227.45,227.45,0,0,1,17.78-31.05,180.78,180.78,0,0,1,21.37-26.1,115.2,115.2,0,0,1,22.73-18q11.48-6.75,21.82-6.75,13,0,20,2.93a32.94,32.94,0,0,1,10.57,6.52q23.85,0,34.65,12.38t10.8,35.77q0,19.35-7.2,41.63a181,181,0,0,1-20.25,42.52A89.58,89.58,0,0,0,1363.58,259,144.82,144.82,0,0,0,1391,232.46c3-3.89,5.1-6.3,6.3-7.2a6,6,0,0,1,3.6-1.35,7.25,7.25,0,0,1,5,2,6.66,6.66,0,0,1,2.25,5.17,5.51,5.51,0,0,1-.45,2A26.62,26.62,0,0,1,1405,237.41Zm-119.25,54.45q-19.35-5.4-29.25-18.67a67.35,67.35,0,0,1-12.6-29.93,238.28,238.28,0,0,0-10.12,29.7q-3.84,14.42-3.83,25.2,0,10.36,4,16.88t13,6.52q10.35,0,20-8.32A111.55,111.55,0,0,0,1285.73,291.86Zm24.75-132.3q-5.85,0-11.47,6.75a70.22,70.22,0,0,0-10.13,17.1,129.53,129.53,0,0,0-7.42,23.4,114.62,114.62,0,0,0-2.93,25.2,74,74,0,0,0,4,25.2q4.05,11.25,13.5,16.2a196.48,196.48,0,0,0,10.35-23.62q4.5-12.37,7.88-24.53a213.72,213.72,0,0,0,5.17-23.4,129.21,129.21,0,0,0,1.8-20.25q0-9.88-2.47-16T1310.48,159.56Z"/><path class="cls-1" d="M1553,252.26a25.36,25.36,0,0,1-5,.45,44.75,44.75,0,0,1-5.63.68c-2.25.15-4.58.22-7,.22a107.88,107.88,0,0,1-11.93-.67,29.53,29.53,0,0,1-11-3.38,22.45,22.45,0,0,1-8.1-7.42c-2.11-3.15-3.15-7.43-3.15-12.83a68.1,68.1,0,0,1,2.47-17.1,132.08,132.08,0,0,1,6.08-18q3.59-9.89,8.1-20.25-1.82,0-9.23,7.43T1490.93,201q-10.37,12.15-22.5,28.35t-23.4,34.2a386.2,386.2,0,0,0-20.48,37.13,219.4,219.4,0,0,0-14.17,37.12q-11.27,0-18.68-2.7a28.65,28.65,0,0,1-11.7-7.42,27.58,27.58,0,0,1-6.07-10.8,45,45,0,0,1-1.8-12.83,65.3,65.3,0,0,1,1.35-13.27,79.07,79.07,0,0,1,3.6-12.38q1.35-4.49,6.07-17.55t10.35-29.7q5.63-16.63,11-33.75t8.55-29.25a90.8,90.8,0,0,0,2.92-14.62,143.19,143.19,0,0,0,.68-14.63q17.08-.9,27.22,2t15.53,7.65a21.72,21.72,0,0,1,7,10.12,34.42,34.42,0,0,1,1.58,9.45,37.06,37.06,0,0,1-.23,4.5,23.6,23.6,0,0,0-.22,2.7q-1.35,7.66-7.43,22.95t-14.17,34.2a378.34,378.34,0,0,1,26.1-35.1,388.51,388.51,0,0,1,27.45-29.7A146.92,146.92,0,0,1,1525.8,147q12.83-7.65,23.18-7.65a27.27,27.27,0,0,1,15.75,4.95,16,16,0,0,1,7.2,14q0,5.4-2.93,15.08t-6.52,20.92q-4.51,13.5-8.33,27t-3.82,22.5Q1550.33,249.56,1553,252.26Z"/><path class="cls-1" d="M1798.72,232.91a238.59,238.59,0,0,1-12.6,22.5A188.6,188.6,0,0,1,1765.87,282a182.37,182.37,0,0,1-28.57,25.43,140.47,140.47,0,0,1-37.58,19.12q-12.15,27.9-25.42,53.1t-27.23,42.75q-11.25,14.85-24.52,21.6t-25.43,6.75q-16.2,0-27.67-10.35T1558,411.11a49.37,49.37,0,0,1,9-29,102,102,0,0,1,22.5-22.95,158.21,158.21,0,0,1,29.25-17.33q15.75-7.19,29.25-12.15,2.7-7.65,5.63-15.52t6.07-16a68.26,68.26,0,0,1-21.15,15.75,59.38,59.38,0,0,1-26.1,5.85q-18.45,0-32-10.8t-13.5-30.6a63.93,63.93,0,0,1,3.15-19.35c.61-1.8,2-5.69,4.28-11.7s4.87-13.12,7.87-21.37,6.3-17.17,9.9-26.78,7.2-18.9,10.8-27.9a86.66,86.66,0,0,0,4-12.6c.9-3.89,1.65-7.35,2.25-10.35q.9-5,1.35-9,23.85,0,32.18,7.2t8.32,16.65q0,7.2-4.5,19.35-3.6,9.45-7.87,19.58t-8.33,20q-7.65,18-13.27,32.85t-5.63,27.9a34.09,34.09,0,0,0,2.93,14.18q2.92,6.52,11.92,6.52,9.9,0,19.13-7.87a94.44,94.44,0,0,0,17.32-20.25,187.06,187.06,0,0,0,14.85-27.9q6.75-15.53,12.38-30.83t9.9-28.8q4.27-13.5,6.52-21.6A100.48,100.48,0,0,0,1709.4,153a65.9,65.9,0,0,0,.67-7.88v-4a1.28,1.28,0,0,1-.45-.9,43.09,43.09,0,0,1,5.85-.45h5.4q20.25,0,28.13,5.4t7.87,14.4q0,6.31-3.15,18.45t-7.87,27q-4.72,14.85-10.35,30.83t-11.25,30.37q-5.64,14.42-10.13,25.65t-6.75,16.65A114.85,114.85,0,0,0,1740,287.14a226.49,226.49,0,0,0,24.3-26.33,188.85,188.85,0,0,0,15.75-23.17q5.63-10.12,6.52-12.38a11.48,11.48,0,0,1,3.38-5.17,6.08,6.08,0,0,1,9,.9,8.06,8.06,0,0,1,2,5.17,10.36,10.36,0,0,1-.22,2A26.77,26.77,0,0,1,1798.72,232.91Zm-157.5,113.85q-12.6,5.4-24.52,11.93a99.22,99.22,0,0,0-20.93,15.07,73.13,73.13,0,0,0-14.62,19.35,50.73,50.73,0,0,0-5.63,23.85c0,4.8,1.21,8.47,3.6,11a11.88,11.88,0,0,0,9,3.82q9.9,0,18.45-11.25,6.3-8.1,15.3-27.9T1641.22,346.76Z"/><path class="cls-1" d="M1839,315.78c0,10.51-2.18,22-12.69,22s-24.94-5.44-24.94-15.95,4.65-22.11,15.17-22.11S1839,305.27,1839,315.78Z"/></svg>